<mxfile host="drawio-plugin" modified="2024-02-04T04:50:40.849Z" agent="5.0 (X11; Linux x86_64) AppleWebKit/537.36 (KHTML, like Gecko) Chrome/111.0.0.0 Safari/537.36" etag="gVZOaPGO49GkgfB2wlpf" version="20.5.3" type="embed"><diagram name="Page-1" id="qBD6op3qUp-WdUlCAM_y"><mxGraphModel dx="1353" dy="704" grid="1" gridSize="10" guides="1" tooltips="1" connect="1" arrows="1" fold="1" page="1" pageScale="1" pageWidth="850" pageHeight="1100" math="0" shadow="0"><root><mxCell id="0"/><mxCell id="1" parent="0"/><mxCell id="JcgW60MsCZc10wQ-YEEx-3" value="v&amp;nbsp; &amp;nbsp; &amp;nbsp; &amp;nbsp; &amp;nbsp; &amp;nbsp; &amp;nbsp;&amp;nbsp;" style="rounded=0;whiteSpace=wrap;html=1;fillColor=#dae8fc;strokeColor=#6c8ebf;fontFamily=Helvetica;" parent="1" vertex="1"><mxGeometry x="-334.5" y="200" width="210" height="130" as="geometry"/></mxCell><mxCell id="JcgW60MsCZc10wQ-YEEx-4" value="&lt;p style=&quot;margin:0px;margin-top:4px;text-align:center;&quot;&gt;&lt;b&gt;PlantProtection&lt;/b&gt;&lt;/p&gt;&lt;p style=&quot;margin:0px;margin-top:4px;text-align:center;&quot;&gt;&lt;b&gt;Product&lt;/b&gt;&lt;/p&gt;&lt;hr size=&quot;1&quot;&gt;&lt;p style=&quot;margin:0px;margin-left:4px;&quot;&gt;&amp;nbsp;&lt;br&gt;&lt;/p&gt;&lt;hr size=&quot;1&quot;&gt;&lt;p style=&quot;margin:0px;margin-left:4px;&quot;&gt;&lt;br&gt;&lt;/p&gt;" style="verticalAlign=top;align=left;overflow=fill;fontSize=12;fontFamily=Helvetica;html=1;sketch=0;strokeWidth=2;" parent="1" vertex="1"><mxGeometry x="-686.8" y="510.5" width="266.8" height="85" as="geometry"/></mxCell><mxCell id="JcgW60MsCZc10wQ-YEEx-5" value="&lt;p style=&quot;margin:0px;margin-top:4px;text-align:center;&quot;&gt;&lt;b&gt;DressedSeed&lt;/b&gt;&lt;span style=&quot;background-color: initial; text-align: left;&quot;&gt;&amp;nbsp;&lt;/span&gt;&lt;/p&gt;&lt;hr size=&quot;1&quot;&gt;&lt;p style=&quot;margin:0px;margin-left:4px;&quot;&gt;&lt;br&gt;&lt;/p&gt;" style="verticalAlign=top;align=left;overflow=fill;fontSize=12;fontFamily=Helvetica;html=1;sketch=0;strokeWidth=2;fillColor=#e1d5e7;strokeColor=#9673a6;" parent="1" vertex="1"><mxGeometry x="-560" y="206.25" width="120" height="100" as="geometry"/></mxCell><mxCell id="JcgW60MsCZc10wQ-YEEx-8" value="eCH-0265 Areas and Crops" style="text;html=1;strokeColor=none;fillColor=none;align=left;verticalAlign=middle;whiteSpace=wrap;rounded=0;strokeWidth=2;fontFamily=Helvetica;" parent="1" vertex="1"><mxGeometry x="-320.75" y="216.25" width="202.5" height="18.75" as="geometry"/></mxCell><mxCell id="JcgW60MsCZc10wQ-YEEx-11" value="" style="endArrow=classic;html=1;sketch=0;fontFamily=Helvetica;curved=1;exitX=1.006;exitY=0.34;exitDx=0;exitDy=0;exitPerimeter=0;" parent="1" source="JcgW60MsCZc10wQ-YEEx-5" target="JcgW60MsCZc10wQ-YEEx-12" edge="1"><mxGeometry width="50" height="50" relative="1" as="geometry"><mxPoint x="-409.2250290360048" y="812" as="sourcePoint"/><mxPoint x="-396.14836065573786" y="875" as="targetPoint"/></mxGeometry></mxCell><mxCell id="JcgW60MsCZc10wQ-YEEx-12" value="&lt;p style=&quot;margin:0px;margin-top:4px;text-align:center;&quot;&gt;&lt;b&gt;BotanicalPlant&lt;/b&gt;&lt;/p&gt;&lt;hr size=&quot;1&quot;&gt;&lt;p style=&quot;margin:0px;margin-left:4px;&quot;&gt;&lt;br&gt;&lt;/p&gt;" style="verticalAlign=top;align=left;overflow=fill;fontSize=12;fontFamily=Helvetica;html=1;sketch=0;strokeWidth=2;" parent="1" vertex="1"><mxGeometry x="-284.5" y="245" width="130" height="60" as="geometry"/></mxCell><mxCell id="JcgW60MsCZc10wQ-YEEx-14" value="&lt;p style=&quot;margin:0px;margin-top:4px;text-align:center;&quot;&gt;&lt;b&gt;SeedTreatment&lt;/b&gt;&lt;/p&gt;&lt;hr size=&quot;1&quot;&gt;&lt;p style=&quot;margin:0px;margin-left:4px;&quot;&gt;&amp;nbsp;id: Identifikator&amp;nbsp;&lt;br&gt;&lt;/p&gt;&lt;p style=&quot;margin:0px;margin-left:4px;&quot;&gt;&amp;nbsp;descriptor: Descriptor&lt;/p&gt;&lt;p style=&quot;margin:0px;margin-left:4px;&quot;&gt;&amp;nbsp;quantity: Measurement&lt;/p&gt;&lt;p style=&quot;margin:0px;margin-left:4px;&quot;&gt;&lt;br&gt;&lt;/p&gt;" style="verticalAlign=top;align=left;overflow=fill;fontSize=12;fontFamily=Helvetica;html=1;sketch=0;strokeWidth=2;" parent="1" vertex="1"><mxGeometry x="-566.8" y="377.5" width="229.3" height="100" as="geometry"/></mxCell><mxCell id="JcgW60MsCZc10wQ-YEEx-15" value="" style="endArrow=classic;html=1;sketch=0;fontFamily=Helvetica;curved=1;entryX=0.34;entryY=-0.005;entryDx=0;entryDy=0;entryPerimeter=0;" parent="1" source="JcgW60MsCZc10wQ-YEEx-5" target="JcgW60MsCZc10wQ-YEEx-14" edge="1"><mxGeometry width="50" height="50" relative="1" as="geometry"><mxPoint x="-667.5" y="524" as="sourcePoint"/><mxPoint x="-400.05129958960333" y="844.5" as="targetPoint"/></mxGeometry></mxCell><mxCell id="JcgW60MsCZc10wQ-YEEx-16" value="" style="endArrow=classic;html=1;sketch=0;fontFamily=Helvetica;curved=1;exitX=0.117;exitY=1.002;exitDx=0;exitDy=0;exitPerimeter=0;" parent="1" source="JcgW60MsCZc10wQ-YEEx-14" target="JcgW60MsCZc10wQ-YEEx-4" edge="1"><mxGeometry width="50" height="50" relative="1" as="geometry"><mxPoint x="-578.5055451829724" y="537.5" as="sourcePoint"/><mxPoint x="-328.9999999999998" y="1038.1" as="targetPoint"/></mxGeometry></mxCell><mxCell id="JcgW60MsCZc10wQ-YEEx-17" value="allowedFor" style="text;html=1;strokeColor=none;fillColor=none;align=center;verticalAlign=middle;whiteSpace=wrap;rounded=0;fontFamily=Helvetica;" parent="1" vertex="1"><mxGeometry x="-418.5" y="250" width="60" height="30" as="geometry"/></mxCell><mxCell id="JcgW60MsCZc10wQ-YEEx-18" value="1 .. *" style="text;html=1;strokeColor=none;fillColor=none;align=center;verticalAlign=middle;whiteSpace=wrap;rounded=0;fontFamily=Helvetica;" parent="1" vertex="1"><mxGeometry x="-530" y="347.5" width="140" height="30" as="geometry"/></mxCell><mxCell id="JcgW60MsCZc10wQ-YEEx-19" value="1..n" style="text;html=1;strokeColor=none;fillColor=none;align=center;verticalAlign=middle;whiteSpace=wrap;rounded=0;fontFamily=Helvetica;" parent="1" vertex="1"><mxGeometry x="-337.5" y="263.5" width="60" height="30" as="geometry"/></mxCell><mxCell id="JcgW60MsCZc10wQ-YEEx-22" value="&lt;p style=&quot;margin:0px;margin-top:4px;text-align:center;&quot;&gt;&lt;b&gt;Ingredient&lt;/b&gt;&lt;/p&gt;&amp;nbsp;&lt;hr size=&quot;1&quot;&gt;&lt;p style=&quot;margin:0px;margin-left:4px;&quot;&gt;&amp;nbsp;&lt;br&gt;&lt;/p&gt;&lt;hr size=&quot;1&quot;&gt;&lt;p style=&quot;margin:0px;margin-left:4px;&quot;&gt;&lt;br&gt;&lt;/p&gt;" style="verticalAlign=top;align=left;overflow=fill;fontSize=12;fontFamily=Helvetica;html=1;sketch=0;strokeWidth=2;" parent="1" vertex="1"><mxGeometry x="-810" y="341.75" width="180.35" height="88.25" as="geometry"/></mxCell><mxCell id="JcgW60MsCZc10wQ-YEEx-23" value="" style="endArrow=classic;html=1;sketch=0;fontFamily=Helvetica;curved=1;exitX=0.379;exitY=0.988;exitDx=0;exitDy=0;exitPerimeter=0;entryX=0.997;entryY=0.311;entryDx=0;entryDy=0;entryPerimeter=0;" parent="1" source="JcgW60MsCZc10wQ-YEEx-5" target="JcgW60MsCZc10wQ-YEEx-22" edge="1"><mxGeometry width="50" height="50" relative="1" as="geometry"><mxPoint x="-513" y="316" as="sourcePoint"/><mxPoint x="-479" y="387" as="targetPoint"/></mxGeometry></mxCell><mxCell id="JcgW60MsCZc10wQ-YEEx-24" value="1 .. *" style="text;html=1;strokeColor=none;fillColor=none;align=center;verticalAlign=middle;whiteSpace=wrap;rounded=0;fontFamily=Helvetica;" parent="1" vertex="1"><mxGeometry x="-680" y="365" width="140" height="30" as="geometry"/></mxCell><mxCell id="JcgW60MsCZc10wQ-YEEx-25" value="OR" style="text;html=1;strokeColor=none;fillColor=none;align=center;verticalAlign=middle;whiteSpace=wrap;rounded=0;fontFamily=Helvetica;" parent="1" vertex="1"><mxGeometry x="-590" y="315" width="140" height="30" as="geometry"/></mxCell><mxCell id="2" value="" style="rounded=0;whiteSpace=wrap;html=1;fontFamily=Helvetica;" parent="1" vertex="1"><mxGeometry x="-470" y="70" width="250" height="100" as="geometry"/></mxCell><mxCell id="3" value="&lt;h1&gt;&lt;span style=&quot;background-color: initial;&quot;&gt;eCH-0263&lt;/span&gt;&lt;/h1&gt;&lt;div&gt;&lt;br&gt;&lt;/div&gt;" style="text;html=1;strokeColor=none;fillColor=none;spacing=5;spacingTop=-20;whiteSpace=wrap;overflow=hidden;rounded=0;strokeWidth=2;fontFamily=Helvetica;" parent="1" vertex="1"><mxGeometry x="-458.5" y="80" width="195.7" height="80" as="geometry"/></mxCell><mxCell id="4" value="DressedSeed" style="text;html=1;strokeColor=none;fillColor=none;align=left;verticalAlign=middle;whiteSpace=wrap;rounded=0;strokeWidth=2;fontFamily=Helvetica;" parent="1" vertex="1"><mxGeometry x="-458.50000000000006" y="120" width="226.4" height="30" as="geometry"/></mxCell><mxCell id="5" value="&lt;p style=&quot;margin:0px;margin-top:4px;text-align:center;&quot;&gt;&lt;b&gt;&lt;i&gt;AbstractProduct&lt;/i&gt;&lt;/b&gt;&lt;/p&gt;&lt;hr size=&quot;1&quot;&gt;&lt;p style=&quot;margin:0px;margin-left:4px;&quot;&gt;&lt;br&gt;&lt;/p&gt;&lt;hr size=&quot;1&quot;&gt;&lt;p style=&quot;margin:0px;margin-left:4px;&quot;&gt;&lt;br&gt;&lt;/p&gt;" style="verticalAlign=top;align=left;overflow=fill;fontSize=12;fontFamily=Helvetica;html=1;sketch=0;strokeWidth=2;" parent="1" vertex="1"><mxGeometry x="-800" y="100" width="220" height="90" as="geometry"/></mxCell><mxCell id="6" value="" style="endArrow=block;html=1;sketch=0;fontFamily=Helvetica;curved=1;endFill=0;" parent="1" source="JcgW60MsCZc10wQ-YEEx-5" target="5" edge="1"><mxGeometry width="50" height="50" relative="1" as="geometry"><mxPoint x="-992.5" y="443.91304347826076" as="sourcePoint"/><mxPoint x="-1214.8799999999997" y="662.3249999999998" as="targetPoint"/></mxGeometry></mxCell></root></mxGraphModel></diagram></mxfile>